<?xml version="1.0" standalone="no"?>
<!DOCTYPE svg PUBLIC "-//W3C//DTD SVG 20010904//EN"
 "http://www.w3.org/TR/2001/REC-SVG-20010904/DTD/svg10.dtd">
<svg version="1.0" xmlns="http://www.w3.org/2000/svg"
 width="225.000000pt" height="225.000000pt" viewBox="0 0 225.000000 225.000000"
 preserveAspectRatio="xMidYMid meet">

<g transform="translate(0.000000,225.000000) scale(0.100000,-0.100000)"
fill="#000000" stroke="none">
<path d="M1060 1778 c0 -3 -109 -486 -125 -555 -5 -23 -8 -23 -145 -23 l-140
0 0 -43 c0 -71 -14 -82 -109 -82 -44 0 -85 5 -91 11 -8 8 -40 111 -40 129 0 2
6 2 14 -1 30 -11 86 71 86 128 0 23 -56 58 -93 58 -27 0 -42 -21 -60 -81 -3
-9 -26 -29 -51 -45 -57 -36 -83 -87 -95 -182 -5 -40 -19 -91 -32 -115 -12 -23
-28 -53 -35 -67 -8 -14 -14 -40 -14 -57 0 -18 -10 -52 -21 -77 l-22 -44 22
-35 c16 -27 21 -50 21 -106 0 -56 3 -71 15 -71 10 0 15 10 15 30 0 17 5 30 10
30 6 0 10 37 10 90 l0 90 75 0 75 0 0 -56 c0 -30 -5 -64 -11 -75 -7 -13 -7
-24 -1 -32 6 -7 12 -25 14 -40 4 -32 21 -37 26 -8 3 19 5 19 44 5 22 -8 44
-14 49 -14 17 0 9 27 -16 50 -14 13 -25 32 -25 42 0 21 1 21 32 9 21 -8 27 -3
58 45 18 29 36 52 38 49 6 -6 22 -86 27 -133 1 -18 6 -36 9 -39 9 -9 147 11
147 22 0 5 -16 15 -37 22 -48 17 -51 20 -31 36 14 11 13 22 -9 127 -15 76 -29
119 -41 127 -21 16 -119 53 -138 53 -8 0 -15 9 -15 19 0 20 18 31 51 31 11 0
22 7 25 15 4 8 17 15 30 15 22 0 24 -4 24 -55 l0 -55 65 0 c51 0 65 -3 65 -15
0 -8 9 -15 20 -15 19 0 20 -7 20 -94 0 -57 4 -97 11 -101 7 -5 3 -14 -11 -27
-20 -19 -20 -21 -4 -39 19 -21 49 -25 60 -7 4 6 6 57 5 114 -1 63 2 105 8 109
18 11 14 -285 -4 -309 -28 -37 -14 -66 30 -66 28 0 39 46 45 175 5 112 9 136
30 173 16 29 30 42 45 42 12 0 49 11 83 25 34 14 77 25 97 25 28 0 35 4 35 19
0 10 8 22 18 27 9 4 177 10 373 12 l357 4 33 -30 34 -30 5 -132 c3 -73 2 -134
-3 -137 -13 -8 13 -43 32 -43 33 0 39 23 40 148 2 132 12 169 46 178 34 8 45
46 45 149 l0 95 -122 1 c-117 0 -121 1 -81 14 96 29 162 86 193 163 23 58 -14
100 -100 115 -19 4 -109 14 -200 22 -258 24 -431 59 -476 96 -12 9 4 70 41
160 5 14 -7 17 -92 23 -54 4 -135 9 -180 12 -46 4 -83 5 -83 2z m-611 -974 c1
-1 -15 -28 -38 -60 l-41 -57 0 65 c0 35 3 67 6 71 5 4 62 -10 73 -19z"/>
</g>
</svg>
